<?xml version="1.0" encoding="UTF-8"?>
<svg width="24px" height="24px" viewBox="0 0 24 24" version="1.1" xmlns="http://www.w3.org/2000/svg" xmlns:xlink="http://www.w3.org/1999/xlink">
    <!-- Generator: Sketch 54.1 (76490) - https://sketchapp.com -->
    <title>icon/cloud_error</title>
    <desc>Created with Sketch.</desc>
    <g id="icon/cloud_error" stroke="none" stroke-width="1" fill="none" fill-rule="evenodd">
        <g id="_ionicons_svg_ios-cloud" transform="translate(1.000000, 5.000000)" fill="#353D47" fill-rule="nonzero" stroke="#111519">
            <path d="M18.7779731,5.74809607 C18.4299941,2.51747706 15.6977153,0 12.3725835,0 C10.1730131,0 8.23550088,1.0997852 7.07127514,2.77953525 C6.71470416,2.63347003 6.32376489,2.55184534 5.91564148,2.55184534 C4.23589143,2.55184534 2.87404804,4.0296817 2.84827182,5.70513572 C1.13415349,6.25073228 0,7.92618629 0,9.68756102 C0,11.8441711 1.74848662,13.747315 3.90509666,13.747315 L18.0949033,13.747315 C20.2515134,13.747315 22,11.8441711 22,9.68756102 C21.995704,7.76723296 20.6080844,6.07459481 18.7779731,5.74809607 Z" id="Path"></path>
        </g>
        <g id="_ionicons_svg_md-rainy" transform="translate(4.000000, 18.224739)" fill="#111519" fill-rule="nonzero">
            <path d="M1.71937639,1.81514477 C1.71937639,1.81514477 0.489977728,3.1674833 0.489977728,3.99064588 C0.489977728,4.67483296 1.04053452,5.23608018 1.71937639,5.23608018 C2.39821826,5.23608018 2.94877506,4.67483296 2.94877506,3.99064588 C2.94877506,3.1674833 1.71937639,1.81514477 1.71937639,1.81514477 Z M5.88864143,0.10467706 C5.88864143,0.10467706 4.65924276,1.45701559 4.65924276,2.28017817 C4.65924276,2.96436526 5.21514477,3.52561247 5.88864143,3.52561247 C6.5674833,3.52561247 7.11804009,2.96436526 7.11804009,2.28017817 C7.11804009,1.45701559 5.88864143,0.10467706 5.88864143,0.10467706 Z M10.0579065,1.81514477 C10.0579065,1.81514477 8.8285078,3.1674833 8.8285078,3.99064588 C8.8285078,4.67483296 9.37906459,5.23608018 10.0579065,5.23608018 C10.7314031,5.23608018 11.2873051,4.67483296 11.2873051,3.99064588 C11.2873051,3.1674833 10.0579065,1.81514477 10.0579065,1.81514477 Z M14.2271715,0.10467706 C14.2271715,0.10467706 12.9977728,1.45701559 12.9977728,2.28017817 C12.9977728,2.96436526 13.5536748,3.52561247 14.2271715,3.52561247 C14.9060134,3.52561247 15.4565702,2.96436526 15.4565702,2.28017817 C15.4565702,1.45701559 14.2271715,0.10467706 14.2271715,0.10467706 Z" id="Shape"></path>
        </g>
    </g>
</svg>