<?xml version="1.0" encoding="UTF-8"?>
<svg width="24px" height="24px" viewBox="0 0 24 24" version="1.1" xmlns="http://www.w3.org/2000/svg" xmlns:xlink="http://www.w3.org/1999/xlink">
    <!-- Generator: Sketch 54.1 (76490) - https://sketchapp.com -->
    <title>icon/cloud_connected</title>
    <desc>Created with Sketch.</desc>
    <g id="icon/cloud_connected" stroke="none" stroke-width="1" fill="none" fill-rule="evenodd">
        <g id="_ionicons_svg_ios-cloud" transform="translate(1.000000, 5.000000)" fill="#353D47" fill-rule="nonzero" stroke="#111519">
            <path d="M18.7779731,5.74809607 C18.4299941,2.51747706 15.6977153,0 12.3725835,0 C10.1730131,0 8.23550088,1.0997852 7.07127514,2.77953525 C6.71470416,2.63347003 6.32376489,2.55184534 5.91564148,2.55184534 C4.23589143,2.55184534 2.87404804,4.0296817 2.84827182,5.70513572 C1.13415349,6.25073228 0,7.92618629 0,9.68756102 C0,11.8441711 1.74848662,13.747315 3.90509666,13.747315 L18.0949033,13.747315 C20.2515134,13.747315 22,11.8441711 22,9.68756102 C21.995704,7.76723296 20.6080844,6.07459481 18.7779731,5.74809607 Z" id="Path"></path>
        </g>
        <g id="_ionicons_svg_ios-checkmark" transform="translate(8.062500, 9.500495)" fill="#FAFAFA" fill-rule="nonzero">
            <path d="M7.74031174,1.41491148 L7.16822283,0.817347196 C7.14546929,0.790935515 7.10971374,0.777729674 7.07720868,0.777729674 C7.04145313,0.777729674 7.00894808,0.790935515 6.98619454,0.817347196 L3.02057824,4.87484167 L1.57735395,3.40899338 C1.5513499,3.3825817 1.51884485,3.36937586 1.4863398,3.36937586 C1.45383475,3.36937586 1.4213297,3.3825817 1.39532566,3.40899338 L0.816735736,3.99665328 C0.764727654,4.04947664 0.764727654,4.13201315 0.816735736,4.18483651 L2.63701863,6.03365417 C2.75403681,6.15250673 2.89705904,6.2218374 3.01732773,6.2218374 C3.18960451,6.2218374 3.33912774,6.09308045 3.39438633,6.04025709 L3.39763684,6.04025709 L7.74356224,1.6030947 C7.78906932,1.54696988 7.78906932,1.46443338 7.74031174,1.41491148 L7.74031174,1.41491148 Z" id="Path"></path>
        </g>
    </g>
</svg>